# xmcd
# 
# Track frame offsets:
#     150
#     19344
#     45204
#     69083
#     86196
#     99651
#     113322
#     132677
#     155335
#     168345
#     190379
#     205609
# 
# Disc length: 3070
# 
# Revision: 2
# Processed by: cddbd v1.5.2PL0 Copyright (c) Steve Scherf et al.
# Submitted via: fre:ac v1.0.17
# 
DISCID=950bfc0c
DTITLE=Mina Agossi - E-Z Pass to Brooklyn
DYEAR=2001
DGENRE=Jazz
TTITLE0=Caravan
TTITLE1=Mabo
TTITLE2=Explore
TTITLE3=Cyber Reality
TTITLE4=2000 Bells
TTITLE5=Ain't Misbehavin'
TTITLE6=Zaboum
TTITLE7=Euphoria
TTITLE8=Butterflies
TTITLE9=Uruk
TTITLE10=Eat it
TTITLE11=Machine Gun
EXTD=Cristal Productions 2002\nhttp://www.cristalprod.com/artiste/agossi/alb.htm
EXTT0=
EXTT1=
EXTT2=
EXTT3=
EXTT4=
EXTT5=
EXTT6=
EXTT7=
EXTT8=
EXTT9=
EXTT10=
EXTT11=
PLAYORDER=
